<svg width="81" height="81" viewBox="0 0 81 81" fill="none" xmlns="http://www.w3.org/2000/svg">
<g clip-path="url(#clip0_1049_20583)">
<path d="M10.5 63C10.5 64.375 11.6187 65.5 13 65.5H75.5C78.2656 65.5 80.5 67.7344 80.5 70.5C80.5 73.2656 78.2656 75.5 75.5 75.5H13C6.09688 75.5 0.5 69.9062 0.5 63V10.5C0.5 7.73906 2.73906 5.5 5.5 5.5C8.26094 5.5 10.5 7.73906 10.5 10.5V63ZM54.0312 44.0312C52.0781 45.9844 48.9219 45.9844 46.9688 44.0312L38 35.0781L24.0312 49.0312C22.0781 50.9844 18.9219 50.9844 16.9688 49.0312C15.0125 47.0781 15.0125 43.9219 16.9688 41.9688L34.4688 24.4688C36.4219 22.5156 39.5781 22.5156 41.5312 24.4688L50.5 33.4219L66.9688 16.9688C68.9219 15.0125 72.0781 15.0125 74.0312 16.9688C75.9844 18.9219 75.9844 22.0781 74.0312 24.0312L54.0312 44.0312Z" fill="#1C2C82"/>
</g>
<defs>
<clipPath id="clip0_1049_20583">
<rect width="80" height="80" fill="white" transform="translate(0.5 0.5)"/>
</clipPath>
</defs>
</svg>
