<svg width="81" height="80" viewBox="0 0 81 80" fill="none" xmlns="http://www.w3.org/2000/svg">
<g clip-path="url(#clip0_1049_20592)">
<path d="M50.5 15H30.5L23.0938 3.8875C21.9844 2.225 23.1719 0 25.1719 0H55.8281C57.8281 0 59.0156 2.225 57.9062 3.8875L50.5 15ZM30.5 20H50.5C51.0938 20.3906 51.7656 20.8281 52.3906 21.3125C61.3906 26.9844 80.5 39.2031 80.5 65C80.5 73.2812 73.7812 80 65.5 80H15.5C7.21562 80 0.5 73.2812 0.5 65C0.5 39.2031 19.6094 26.9844 28.4688 21.3125C29.2344 20.8281 29.9062 20.3906 30.5 20ZM43.6406 35C43.6406 33.2656 42.2344 31.8594 40.3594 31.8594C38.7656 31.8594 37.3594 33.2656 37.3594 35V35.9375C36.4844 36.125 35.5156 36.3906 34.875 36.7344C32.5469 37.7969 30.5156 39.7656 30.0156 42.625C29.7344 44.2187 29.8906 45.7656 30.5469 47.1562C31.2031 48.5312 32.2188 49.5 33.25 50.2031C35.0625 51.4375 37.4531 52.1562 39.2812 52.7031L39.625 52.7969C41.8125 53.4688 43.2812 53.9531 44.2031 54.625C44.5938 54.9062 44.7344 55.125 44.7812 55.2656C44.8438 55.3906 44.9375 55.6719 44.8281 56.2969C44.7344 56.8438 44.4375 57.3125 43.5781 57.6719C42.625 58.0781 41.0781 58.2812 39.0781 57.9688C38.1406 57.8125 36.4688 57.25 34.9844 56.75C34.6406 56.625 34.2969 56.5156 33.9844 56.4062C32.3438 55.8594 30.5781 56.75 30.0312 58.3906C29.4844 60.0312 30.375 61.7969 32.0156 62.2031C32.2031 62.4062 32.4375 62.4844 32.7031 62.5781C33.7969 63 35.875 63.6562 37.3594 64V65C37.3594 66.7344 38.7656 68.1406 40.3594 68.1406C42.2344 68.1406 43.6406 66.7344 43.6406 65V64.1406C44.4688 63.9844 45.2812 63.6094 46.0312 63.4219C48.5 62.375 50.4688 60.3438 50.9844 57.375C51.2656 55.75 51.1406 54.1875 50.5156 52.7656C49.9062 51.3594 48.9219 50.3281 47.875 49.5781C45.9844 48.1875 43.4531 47.4375 41.5625 46.8594L41.2969 46.8281C39.2188 46.1562 37.7188 45.6875 36.7656 45.0312C36.3594 44.75 36.2344 44.5625 36.2031 44.4844C36.1719 44.4219 36.0781 44.2344 36.1719 43.7031C36.2344 43.3906 36.4688 42.875 37.4531 42.4375C38.3281 41.9844 40.0156 41.7344 41.9219 41.8906C42.6094 42.1406 44.7188 42.5469 45.3281 42.7031C46.9844 43.1562 48.7031 42.1562 49.1406 40.4844C49.5938 38.8281 48.5938 37.1094 46.9219 36.6719C46.2344 36.4844 44.6719 36.1719 43.6406 35.9844V35Z" fill="#1C2C82"/>
</g>
<defs>
<clipPath id="clip0_1049_20592">
<rect width="80" height="80" fill="white" transform="translate(0.5)"/>
</clipPath>
</defs>
</svg>
