<svg width="81" height="80" viewBox="0 0 81 80" fill="none" xmlns="http://www.w3.org/2000/svg">
<g clip-path="url(#clip0_1049_20585)">
<path d="M13.5 15H7.5C5.84375 15 4.5 16.6875 4.5 18.75V35C2.29125 35 0.5 37.2344 0.5 40C0.5 42.7609 2.29125 45 4.3875 45L4.5 61.25C4.5 63.3281 5.84375 65 7.5 65H13.5C15.1625 65 16.5 63.3281 16.5 61.25V18.75C16.5 16.6875 15.1625 15 13.5 15ZM57.5 5H51.5C49.85 5 48.5 6.67969 48.5 8.75V35H32.5V8.75C32.5 6.67969 31.1625 5 29.5 5H23.5C21.85 5 20.5 6.67969 20.5 8.75V71.25C20.5 73.3281 21.85 75 23.5 75H29.5C31.1625 75 32.5 73.3281 32.5 71.25V45H48.5V71.25C48.5 73.3203 49.8438 75 51.5 75H57.5C59.1562 75 60.5 73.3203 60.5 71.25V8.75C60.5 6.67969 59.1625 5 57.5 5ZM76.5 35V18.75C76.5 16.6875 75.1625 15 73.5 15H67.5C65.85 15 64.5 16.6875 64.5 18.75V61.25C64.5 63.3203 65.8438 65 67.5 65H73.5C75.1562 65 76.5 63.3203 76.5 61.25V45C78.7087 45 80.5 42.7609 80.5 40C80.5 37.2344 78.7125 35 76.5 35Z" fill="#1C2C82"/>
</g>
<defs>
<clipPath id="clip0_1049_20585">
<rect width="80" height="80" fill="white" transform="translate(0.5)"/>
</clipPath>
</defs>
</svg>
