<svg width="75" height="80" viewBox="0 0 75 80" fill="none" xmlns="http://www.w3.org/2000/svg">
<path d="M70.3906 13.0797L40.3906 0.579687C39.625 0.26125 38.3281 0 37.5156 0C36.6875 0 35.3906 0.26125 34.625 0.578594L4.62656 13.0797C1.82813 14.2344 0 16.9688 0 19.8594C0 60.1875 29.5625 80 37.4844 80C45.4844 80 75 59.9688 75 19.8594C75 16.9688 73.1719 14.2344 70.3906 13.0797ZM63.3125 35H42.5V66.8281C40.7188 68.058 39.0125 69.0563 37.4875 69.7672C35.8281 69.0156 34.1562 68.0625 32.5 66.9531V35H11.7C10.9609 31.8438 10.4672 28.5 10.2109 25H32.5V12.2922L37.5078 10.2063L42.5 12.2859V25H64.7812C64.3906 28.5469 64.0312 31.8906 63.3125 35Z" fill="#1C2C82"/>
</svg>
