<svg width="81" height="80" viewBox="0 0 81 80" fill="none" xmlns="http://www.w3.org/2000/svg">
<g clip-path="url(#clip0_1049_20594)">
<path d="M77.9688 45H3.02972C1.60238 45 0.390784 46.2188 0.507971 47.6406C1.56391 59.575 9.61422 69.4219 20.5236 73.25V75C20.5236 77.7531 22.7814 80 25.5377 80H55.5689C58.3267 80 60.5752 77.7531 60.5752 75V73.2031C71.4283 69.3562 79.4502 59.5312 80.4814 47.6406C80.6094 46.2188 79.4219 45 77.9688 45ZM50.5 35C50.5 36.7625 50.8602 38.4297 51.4186 40H79.5749C80.1407 38.4219 80.5 36.7656 80.5 35C80.5 26.7156 73.7844 20 65.5 20C57.2157 20 50.5 26.5781 50.5 35ZM15.5141 40H26.9657L13.7328 26.7656C12.7563 25.7891 12.7563 24.2062 13.7328 23.2312C14.7094 22.2562 16.2922 22.2547 17.2672 23.2312L33 38.9688V17.5C33 16.125 34.125 15 35.5 15C36.875 15 38 16.1181 38 17.5V40H46.2282C45.7789 38.3781 45.5446 36.7 45.525 35C45.5446 23.9641 54.4922 15.0156 65.525 15C65.9352 15 66.3261 15.0977 66.7363 15.1172C63.9844 12.0125 60.0157 10 55.5313 10C54.2025 10.0195 52.8594 10.2205 51.5891 10.5916C48.8282 4.16563 42.5157 0 35.5157 0C28.5313 0 22.2032 4.15937 19.4375 10.5859C18.1719 10.2156 16.8438 10.0203 15.5141 10C7.22972 10 0.507971 16.7188 0.507971 25C0.507971 33.2812 7.22972 40 15.5141 40Z" fill="#1C2C82"/>
</g>
<defs>
<clipPath id="clip0_1049_20594">
<rect width="80" height="80" fill="white" transform="translate(0.5)"/>
</clipPath>
</defs>
</svg>
