<svg width="33" height="22" viewBox="0 0 33 22" fill="none" xmlns="http://www.w3.org/2000/svg">
<path fill-rule="evenodd" clip-rule="evenodd" d="M0 11C0 10.6906 0.124162 10.3939 0.345173 10.1752C0.566184 9.9564 0.865937 9.8335 1.17849 9.8335H28.9745L21.5571 2.49386C21.4475 2.3854 21.3606 2.25665 21.3013 2.11494C21.242 1.97324 21.2114 1.82136 21.2114 1.66798C21.2114 1.5146 21.242 1.36272 21.3013 1.22101C21.3606 1.07931 21.4475 0.950549 21.5571 0.842092C21.6666 0.733635 21.7967 0.647603 21.9399 0.588907C22.083 0.530211 22.2365 0.5 22.3914 0.5C22.5464 0.5 22.6998 0.530211 22.843 0.588907C22.9862 0.647603 23.1162 0.733635 23.2258 0.842092L32.6538 10.1741C32.7635 10.2825 32.8506 10.4112 32.91 10.5529C32.9694 10.6946 33 10.8466 33 11C33 11.1534 32.9694 11.3054 32.91 11.4471C32.8506 11.5888 32.7635 11.7175 32.6538 11.8259L23.2258 21.1579C23.1162 21.2664 22.9862 21.3524 22.843 21.4111C22.6998 21.4698 22.5464 21.5 22.3914 21.5C22.2365 21.5 22.083 21.4698 21.9399 21.4111C21.7967 21.3524 21.6666 21.2664 21.5571 21.1579C21.4475 21.0495 21.3606 20.9207 21.3013 20.779C21.242 20.6373 21.2114 20.4854 21.2114 20.332C21.2114 20.1786 21.242 20.0268 21.3013 19.8851C21.3606 19.7434 21.4475 19.6146 21.5571 19.5061L28.9745 12.1665H1.17849C0.865937 12.1665 0.566184 12.0436 0.345173 11.8248C0.124162 11.6061 0 11.3094 0 11Z" fill="#14171F"/>
</svg>
