<svg width="40" height="40" viewBox="0 0 40 40" fill="none" xmlns="http://www.w3.org/2000/svg">
<rect width="40" height="40" rx="20" fill="#3D445C"/>
<path fill-rule="evenodd" clip-rule="evenodd" d="M8.0369 19.2933C14.2384 16.5914 18.3737 14.8102 20.4428 13.9496C26.3505 11.4924 27.5781 11.0655 28.3782 11.0514C28.5542 11.0483 28.9476 11.0919 29.2025 11.2987C29.4177 11.4734 29.4769 11.7093 29.5053 11.8748C29.5336 12.0404 29.5689 12.4176 29.5408 12.7123C29.2207 16.076 27.8355 24.2389 27.1307 28.0064C26.8325 29.6005 26.2454 30.1351 25.6769 30.1874C24.4416 30.301 23.5035 29.371 22.307 28.5866C20.4347 27.3593 19.377 26.5953 17.5596 25.3977C15.4593 24.0136 16.8208 23.2529 18.0178 22.0097C18.331 21.6844 23.774 16.7335 23.8794 16.2844C23.8926 16.2282 23.9048 16.0189 23.7804 15.9083C23.656 15.7978 23.4724 15.8356 23.34 15.8656C23.1522 15.9082 20.1612 17.8852 14.3669 21.7965C13.5179 22.3794 12.7489 22.6635 12.06 22.6486C11.3004 22.6322 9.83932 22.2191 8.75317 21.8661C7.42095 21.433 6.36213 21.2041 6.45433 20.4686C6.50235 20.0855 7.02987 19.6938 8.0369 19.2933Z" fill="white"/>
</svg>
