<svg width="40" height="40" viewBox="0 0 40 40" fill="none" xmlns="http://www.w3.org/2000/svg">
<path d="M20 5.00513C19.344 5.00513 18.6945 5.13433 18.0885 5.38535C17.4825 5.63637 16.9318 6.0043 16.468 6.46813C16.0042 6.93196 15.6362 7.4826 15.3852 8.08862C15.1342 8.69464 15.005 9.34417 15.005 10.0001C15.005 10.6561 15.1342 11.3056 15.3852 11.9116C15.6362 12.5177 16.0042 13.0683 16.468 13.5321C16.9318 13.996 17.4825 14.3639 18.0885 14.6149C18.6945 14.8659 19.344 14.9951 20 14.9951C21.3248 14.9951 22.5953 14.4689 23.532 13.5321C24.4687 12.5954 24.995 11.3249 24.995 10.0001C24.995 8.67537 24.4687 7.40487 23.532 6.46813C22.5953 5.53138 21.3248 5.00513 20 5.00513ZM31.25 7.50013C30.2554 7.50013 29.3016 7.89521 28.5983 8.59848C27.8951 9.30174 27.5 10.2556 27.5 11.2501C27.5 12.2447 27.8951 13.1985 28.5983 13.9018C29.3016 14.605 30.2554 15.0001 31.25 15.0001C32.2446 15.0001 33.1984 14.605 33.9017 13.9018C34.6049 13.1985 35 12.2447 35 11.2501C35 10.2556 34.6049 9.30174 33.9017 8.59848C33.1984 7.89521 32.2446 7.50013 31.25 7.50013ZM8.75 7.50013C7.75544 7.50013 6.80161 7.89521 6.09835 8.59848C5.39509 9.30174 5 10.2556 5 11.2501C5 12.2447 5.39509 13.1985 6.09835 13.9018C6.80161 14.605 7.75544 15.0001 8.75 15.0001C9.74456 15.0001 10.6984 14.605 11.4017 13.9018C12.1049 13.1985 12.5 12.2447 12.5 11.2501C12.5 10.2556 12.1049 9.30174 11.4017 8.59848C10.6984 7.89521 9.74456 7.50013 8.75 7.50013ZM12.5 19.9826C12.5046 19.3226 12.7701 18.6912 13.2384 18.2262C13.7067 17.7611 14.34 17.5001 15 17.5001H25C25.663 17.5001 26.2989 17.7635 26.7678 18.2324C27.2366 18.7012 27.5 19.3371 27.5 20.0001V27.5001C27.4998 28.2869 27.3767 29.0689 27.135 29.8176C26.5814 31.5144 25.4411 32.9582 23.9188 33.8899C22.3965 34.8215 20.5919 35.18 18.8291 34.9008C17.0663 34.6217 15.4607 33.7232 14.3007 32.3668C13.1407 31.0104 12.5023 29.2849 12.5 27.5001V19.9826ZM10 20.0001C10 19.0876 10.2425 18.2351 10.67 17.5001H5C4.33696 17.5001 3.70107 17.7635 3.23223 18.2324C2.76339 18.7012 2.5 19.3371 2.5 20.0001V26.2501C2.49966 27.2734 2.75057 28.2811 3.23068 29.1847C3.7108 30.0884 4.40544 30.8603 5.25361 31.4327C6.10177 32.0052 7.07751 32.3606 8.09514 32.4678C9.11277 32.575 10.1412 32.4307 11.09 32.0476C10.3704 30.6391 9.9968 29.0793 10 27.4976V20.0001ZM30 20.0001V27.5001C30 29.1376 29.6075 30.6826 28.91 32.0476C29.8588 32.4307 30.8872 32.575 31.9049 32.4678C32.9225 32.3606 33.8982 32.0052 34.7464 31.4327C35.5946 30.8603 36.2892 30.0884 36.7693 29.1847C37.2494 28.2811 37.5003 27.2734 37.5 26.2501V20.0001C37.5 19.3371 37.2366 18.7012 36.7678 18.2324C36.2989 17.7635 35.663 17.5001 35 17.5001H29.33C29.755 18.2351 30 19.0876 30 20.0001Z" fill="#1C2C82"/>
</svg>
