<svg width="41" height="41" viewBox="0 0 41 41" fill="none" xmlns="http://www.w3.org/2000/svg">
<path fill-rule="evenodd" clip-rule="evenodd" d="M10.25 6.83325H34.1666C36.0509 6.83325 37.5833 8.36563 37.5833 10.2499V29.0416C37.5833 30.9259 36.0509 32.4583 34.1666 32.4583H20.5V29.0416H34.1666V13.6666L23.2333 21.8666C22.9375 22.0881 22.5779 22.2078 22.2083 22.2078C21.8387 22.2078 21.4791 22.0881 21.1833 21.8666L10.25 13.6666V18.7916H6.83329V10.2499C6.83329 8.36563 8.36567 6.83325 10.25 6.83325ZM11.3877 10.2499L22.2083 18.3645L33.0289 10.2499H11.3877ZM15.375 20.4999H3.41663V23.9166H15.375V20.4999ZM17.0833 25.6249H6.83329V29.0416H17.0833V25.6249ZM18.7916 30.7499H11.9583V34.1666H18.7916V30.7499Z" fill="#FFFBFA"/>
</svg>
