<svg width="60" height="60" viewBox="0 0 60 60" fill="none" xmlns="http://www.w3.org/2000/svg">
<path d="M41.0625 26.3122V18.9372C41.069 18.6948 41.0229 18.454 40.9274 18.2312C40.832 18.0084 40.6893 17.8089 40.5094 17.6465L27.6031 4.74028C27.4408 4.56022 27.2414 4.41753 27.0185 4.32203C26.7957 4.22654 26.5548 4.18052 26.3125 4.18715H7.875C6.89791 4.19007 5.96168 4.57951 5.27077 5.27042C4.57986 5.96133 4.19042 6.89756 4.1875 7.87465V52.1246C4.1875 53.1026 4.576 54.0406 5.26754 54.7321C5.95908 55.4236 6.89701 55.8121 7.875 55.8121H37.375V52.1246H7.875V7.87465H22.625V18.9372C22.6279 19.9142 23.0174 20.8505 23.7083 21.5414C24.3992 22.2323 25.3354 22.6217 26.3125 22.6247H37.375V26.3122H41.0625ZM26.3125 18.9372V8.61215L36.6375 18.9372H26.3125Z" fill="#2947A9"/>
<path d="M13.6602 31.4365C15.3796 31.4365 16.666 31.8107 17.5195 32.5591C18.3792 33.3075 18.8091 34.3713 18.8091 35.7505C18.8091 36.369 18.7194 36.9627 18.54 37.5317C18.3669 38.1007 18.0793 38.6079 17.6772 39.0532C17.2814 39.4985 16.7526 39.8511 16.0908 40.1108C15.4352 40.3706 14.625 40.5005 13.6602 40.5005H12.6304V45H8.96582V31.4365H13.6602ZM13.5767 34.396H12.6304V37.5132H13.354C13.6694 37.5132 13.9632 37.4606 14.2354 37.3555C14.5075 37.2441 14.724 37.0679 14.8848 36.8267C15.0518 36.5793 15.1353 36.2515 15.1353 35.8433C15.1353 35.4165 15.0085 35.0701 14.7549 34.8042C14.5013 34.5321 14.1086 34.396 13.5767 34.396ZM32.4839 37.9307C32.4839 39.5078 32.1901 40.819 31.6025 41.8643C31.015 42.9095 30.1862 43.695 29.1162 44.2207C28.0524 44.7402 26.8 45 25.3589 45H20.9707V31.4365H25.665C27.1247 31.4365 28.3617 31.687 29.376 32.188C30.3903 32.689 31.1603 33.4219 31.686 34.3867C32.2179 35.3516 32.4839 36.5329 32.4839 37.9307ZM28.6802 38.0605C28.6802 37.238 28.5688 36.5576 28.3462 36.0195C28.1297 35.4753 27.8019 35.0701 27.3628 34.8042C26.9237 34.5321 26.3701 34.396 25.7021 34.396H24.6353V41.9941H25.4517C26.5649 41.9941 27.3813 41.6725 27.9009 41.0293C28.4204 40.3799 28.6802 39.3903 28.6802 38.0605ZM38.5327 45H34.9238V31.4365H42.9395V34.3774H38.5327V36.9658H42.5962V39.9067H38.5327V45Z" fill="#1C2C82"/>
</svg>
